<svg width="110" height="110" viewBox="0 0 110 110" fill="none" xmlns="http://www.w3.org/2000/svg">
<g filter="url(#filter0_d_348_177)">
<path d="M52.8276 1.7771C53.3055 -0.593807 56.6945 -0.593808 57.1724 1.7771C57.6092 3.94409 60.6016 4.2059 61.4081 2.14767C62.2905 -0.104222 65.6279 0.484259 65.6868 2.90213C65.7407 5.11206 68.6422 5.88951 69.7939 4.0026C71.0538 1.93814 74.2384 3.09722 73.8766 5.4886C73.5459 7.6743 76.2683 8.9438 77.7301 7.28553C79.3295 5.47122 82.2644 7.16569 81.4928 9.45791C80.7876 11.553 83.2482 13.2759 84.9757 11.8967C86.8658 10.3877 89.4619 12.566 88.304 14.6894C87.2457 16.6302 89.3698 18.7543 91.3106 17.696C93.434 16.5381 95.6123 19.1342 94.1033 21.0243C92.7241 22.7518 94.447 25.2124 96.5421 24.5072C98.8343 23.7356 100.529 26.6705 98.7145 28.2699C97.0562 29.7317 98.3257 32.4541 100.511 32.1234C102.903 31.7616 104.062 34.9462 101.997 36.2061C100.11 37.3578 100.888 40.2593 103.098 40.3132C105.516 40.3721 106.104 43.7096 103.852 44.5919C101.794 45.3984 102.056 48.3908 104.223 48.8276C106.594 49.3055 106.594 52.6945 104.223 53.1724C102.056 53.6092 101.794 56.6016 103.852 57.4081C106.104 58.2905 105.516 61.6279 103.098 61.6868C100.888 61.7407 100.11 64.6422 101.997 65.7939C104.062 67.0538 102.903 70.2384 100.511 69.8766C98.3257 69.5459 97.0562 72.2683 98.7145 73.7301C100.529 75.3295 98.8343 78.2644 96.5421 77.4928C94.447 76.7876 92.7241 79.2482 94.1033 80.9757C95.6123 82.8658 93.434 85.4619 91.3106 84.304C89.3698 83.2457 87.2457 85.3698 88.304 87.3106C89.4619 89.434 86.8658 91.6123 84.9757 90.1033C83.2482 88.7241 80.7876 90.447 81.4928 92.5421C82.2644 94.8343 79.3295 96.5288 77.7301 94.7145C76.2683 93.0562 73.5459 94.3257 73.8766 96.5114C74.2384 98.9028 71.0538 100.062 69.7939 97.9974C68.6422 96.1105 65.7407 96.8879 65.6868 99.0979C65.6279 101.516 62.2905 102.104 61.4081 99.8523C60.6016 97.7941 57.6092 98.0559 57.1724 100.223C56.6945 102.594 53.3055 102.594 52.8276 100.223C52.3908 98.0559 49.3984 97.7941 48.5919 99.8523C47.7096 102.104 44.3721 101.516 44.3132 99.0979C44.2593 96.8879 41.3578 96.1105 40.2061 97.9974C38.9462 100.062 35.7616 98.9028 36.1234 96.5114C36.4541 94.3257 33.7317 93.0562 32.2699 94.7145C30.6705 96.5288 27.7356 94.8343 28.5072 92.5421C29.2124 90.447 26.7518 88.7241 25.0243 90.1033C23.1342 91.6123 20.5381 89.434 21.696 87.3106C22.7543 85.3698 20.6302 83.2457 18.6894 84.304C16.566 85.4619 14.3877 82.8658 15.8967 80.9757C17.2759 79.2482 15.553 76.7876 13.4579 77.4928C11.1657 78.2644 9.47122 75.3295 11.2855 73.7301C12.9438 72.2683 11.6743 69.5459 9.4886 69.8766C7.09722 70.2384 5.93814 67.0538 8.0026 65.7939C9.88951 64.6422 9.11206 61.7407 6.90213 61.6868C4.48426 61.6279 3.89578 58.2905 6.14767 57.4081C8.2059 56.6016 7.94409 53.6092 5.7771 53.1724C3.40619 52.6945 3.40619 49.3055 5.7771 48.8276C7.94409 48.3908 8.2059 45.3984 6.14767 44.5919C3.89578 43.7096 4.48426 40.3721 6.90213 40.3132C9.11206 40.2593 9.88951 37.3578 8.0026 36.2061C5.93814 34.9462 7.09722 31.7616 9.4886 32.1234C11.6743 32.4541 12.9438 29.7317 11.2855 28.2699C9.47122 26.6705 11.1657 23.7356 13.4579 24.5072C15.553 25.2124 17.2759 22.7518 15.8967 21.0243C14.3877 19.1342 16.566 16.5381 18.6894 17.696C20.6302 18.7543 22.7543 16.6302 21.696 14.6894C20.5381 12.566 23.1342 10.3877 25.0243 11.8967C26.7518 13.2759 29.2124 11.553 28.5072 9.45791C27.7356 7.16569 30.6705 5.47122 32.2699 7.28553C33.7317 8.9438 36.4541 7.6743 36.1234 5.4886C35.7616 3.09722 38.9462 1.93814 40.2061 4.0026C41.3578 5.88951 44.2593 5.11206 44.3132 2.90213C44.3721 0.484259 47.7096 -0.104223 48.5919 2.14767C49.3984 4.2059 52.3908 3.94409 52.8276 1.7771Z" fill="#F5CB5C"/>
</g>
<defs>
<filter id="filter0_d_348_177" x="-0.000976562" y="-0.000976562" width="110.002" height="110.002" filterUnits="userSpaceOnUse" color-interpolation-filters="sRGB">
<feFlood flood-opacity="0" result="BackgroundImageFix"/>
<feColorMatrix in="SourceAlpha" type="matrix" values="0 0 0 0 0 0 0 0 0 0 0 0 0 0 0 0 0 0 127 0" result="hardAlpha"/>
<feOffset dy="4"/>
<feGaussianBlur stdDeviation="2"/>
<feComposite in2="hardAlpha" operator="out"/>
<feColorMatrix type="matrix" values="0 0 0 0 0 0 0 0 0 0 0 0 0 0 0 0 0 0 0.25 0"/>
<feBlend mode="normal" in2="BackgroundImageFix" result="effect1_dropShadow_348_177"/>
<feBlend mode="normal" in="SourceGraphic" in2="effect1_dropShadow_348_177" result="shape"/>
</filter>
</defs>
</svg>
