<svg width="36" height="30" viewBox="0 0 36 30" fill="none" xmlns="http://www.w3.org/2000/svg">
<path d="M34.5 1.49946C33.0636 2.51267 31.4732 3.28762 29.79 3.79446C28.8866 2.75572 27.686 2.0195 26.3506 1.68535C25.0151 1.3512 23.6092 1.43525 22.3231 1.92614C21.037 2.41703 19.9327 3.29106 19.1595 4.43003C18.3863 5.56901 17.9815 6.91796 18 8.29446V9.79446C15.364 9.86281 12.7519 9.27818 10.3965 8.09263C8.04112 6.90708 6.01548 5.15741 4.5 2.99946C4.5 2.99946 -1.5 16.4995 12 22.4995C8.91079 24.5964 5.23074 25.6479 1.5 25.4995C15 32.9995 31.5 25.4995 31.5 8.24946C31.4986 7.83164 31.4584 7.41485 31.38 7.00446C32.9109 5.4947 33.9912 3.58853 34.5 1.49946Z" stroke="#F2ECDD" stroke-width="2" stroke-linecap="round" stroke-linejoin="round"/>
</svg>
